# xmcd CD database file
#
# Track frame offsets:
#	150
#	20877
#	38542
#	59417
#
# Disc length: 1003 seconds
#
# Revision: 4
# Processed by: cddbd v1.5.2PL0 Copyright (c) Steve Scherf et al.
# Submitted via: CDex 1.70beta2
#
DISCID=2e03e904
DTITLE=NEWS - 希望 ～Yell～
DYEAR=2004
DGENRE=J-Pop
TTITLE0=希望 ～Yell～
TTITLE1=Stand Up
TTITLE2=Good News!
TTITLE3=LET'S GO TO THE PLANETS
EXTD=YEAR: 2004
EXTT0=
EXTT1=
EXTT2=
EXTT3=
PLAYORDER=
